<svg width="41" height="41" viewBox="0 0 41 41" fill="none" xmlns="http://www.w3.org/2000/svg">
<path fill-rule="evenodd" clip-rule="evenodd" d="M0 20.6213C0 31.8218 9.17816 41 20.6213 41C31.8218 41 41 31.8218 41 20.6213C41 9.17816 31.8218 0 20.6213 0C9.17816 0 0 9.17816 0 20.6213ZM38.4105 20.6214C38.4105 30.3918 30.3917 38.4106 20.6213 38.4106C10.6412 38.4106 2.58948 30.4244 2.58948 20.6214C2.58948 10.6084 10.6083 2.58956 20.6213 2.58956C30.4243 2.58956 38.4105 10.6413 38.4105 20.6214Z" fill="#DFE3E8"/>
<path fill-rule="evenodd" clip-rule="evenodd" d="M18.7239 15.4755C19.0306 15.231 19.4112 15.0979 19.8034 15.0979H19.8934C20.2814 15.0979 20.6582 15.2282 20.9634 15.4679L26.0877 19.4942C26.3651 19.7122 26.7362 19.7696 27.0665 19.6457L29.7769 18.6293C29.9084 18.58 30.0549 18.5983 30.1696 18.6794C30.7638 19.0993 32.6434 20.4303 33.3158 20.9376C34.8782 22.116 36.0292 22.904 36.0292 22.904C36.0292 22.904 36.0093 22.4703 36.0292 22.0031C36.4437 12.3018 28.8301 5.26358 20.2766 5.38735C11.7326 5.51441 4.82656 12.133 4.96523 21.3306C4.97824 22.1053 5.10052 22.904 5.10052 22.904L7.27654 21.3306L10.1374 19.339C10.3716 19.176 10.6798 19.1663 10.9238 19.3142L12.3608 20.1854C12.5159 20.2795 12.7133 20.2668 12.8551 20.1537L18.7239 15.4755Z" fill="#DFE3E8"/>
<path fill-rule="evenodd" clip-rule="evenodd" d="M18.9955 39.4366C21.5214 39.7204 23.6028 39.2953 24.3258 39.0953C24.6555 39.0041 25.8879 38.7119 26.1784 38.6173C27.1514 38.3006 28.6363 37.6293 29.4823 37.1401C30.7484 36.408 31.6423 35.6368 32.8805 34.5548C35.6293 32.1527 37.4917 27.7053 37.4917 27.2515C37.4917 27.1462 32.0948 23.2103 30.7719 22.2471C30.604 22.1248 30.3734 22.1431 30.2255 22.289L30.0385 22.4735C29.8922 22.6178 29.8696 22.845 29.9854 23.0148C30.465 23.7173 31.6467 25.4564 31.7013 25.6168C31.9009 26.2034 31.6168 26.5345 31.3328 26.3582C31.0487 26.1819 24.697 22.036 24.697 22.036L20.8736 19.4744C20.4032 19.1592 19.7716 19.4963 19.7716 20.0625V20.0625C19.7716 20.0625 19.6431 21.8672 19.6431 23.0453C19.6431 23.5234 19.5923 24.1037 18.9955 24.2541C18.6965 24.3294 17.9399 24.3737 17.9399 24.3737L11.502 23.9023C11.0789 23.8713 10.8457 24.3836 11.147 24.6824V24.6824C11.147 24.6824 19.6431 30.2386 19.6431 30.691C19.6431 31.6523 16.5848 30.1119 14.1848 28.9821C11.1691 27.5625 7.8077 26.2907 7.13855 26.0405C7.06137 26.0117 6.97961 26.018 6.90761 26.0581C6.32244 26.3839 3.63356 27.8849 3.65536 27.9472C4.47975 30.3046 6.66641 33.7568 9.97931 36.0559C11.304 36.9752 12.8319 37.8338 14.3197 38.3672C16.0209 38.9772 17.8045 39.4366 18.9955 39.4366Z" fill="#DFE3E8"/>
</svg>
