<svg width="131" height="27" viewBox="0 0 131 27" fill="none" xmlns="http://www.w3.org/2000/svg">
<g id="devias-s">
<g id="Group 10">
<path id="Combined Shape" fill-rule="evenodd" clip-rule="evenodd" d="M0 13.5799C0 20.9558 6.07965 27 13.6596 27C21.0789 27 27.1585 20.9558 27.1585 13.5799C27.1585 6.04416 21.0789 0 13.6596 0C6.07965 0 0 6.04416 0 13.5799ZM25.4433 13.5799C25.4433 20.0141 20.1316 25.2947 13.6596 25.2947C7.04879 25.2947 1.71528 20.0355 1.71528 13.5799C1.71528 6.98595 7.02697 1.70526 13.6596 1.70526C20.1532 1.70526 25.4433 7.00765 25.4433 13.5799Z" fill="white"/>
<path id="Oval 3" fill-rule="evenodd" clip-rule="evenodd" d="M12.3786 10.2104C12.5975 10.0369 12.8685 9.94251 13.1478 9.94251C13.4241 9.94251 13.6925 10.0349 13.9102 10.205L17.1312 12.721C17.4079 12.9371 17.777 12.9941 18.106 12.8714L19.6544 12.2942C19.7853 12.2454 19.9311 12.2635 20.0454 12.3439C20.4933 12.6588 21.644 13.4698 22.0685 13.7882C23.1034 14.5642 23.8659 15.0831 23.8659 15.0831C23.8659 15.0831 23.8526 14.7975 23.8659 14.4899C24.1404 8.10121 19.0972 3.46627 13.4313 3.54777C7.77168 3.63145 3.19712 7.99003 3.28897 14.047C3.29759 14.5571 3.37859 15.0831 3.37859 15.0831L4.81999 14.047L6.58656 12.8244C6.82002 12.6628 7.12653 12.6531 7.3697 12.7997L8.10175 13.2409C8.25639 13.3341 8.45264 13.3216 8.59415 13.2095L12.3786 10.2104Z" fill="white"/>
<path id="Oval 4" fill-rule="evenodd" clip-rule="evenodd" d="M12.5827 25.9703C14.2559 26.1572 15.6346 25.8772 16.1135 25.7455C16.3319 25.6855 17.1482 25.4931 17.3406 25.4308C17.9852 25.2222 18.9688 24.7801 19.5292 24.458C20.3679 23.9759 20.96 23.468 21.7802 22.7555C23.601 21.1736 24.8347 18.2448 24.8347 17.946C24.8347 17.8783 21.4288 15.4073 20.4509 14.6992C20.2996 14.5897 20.0938 14.607 19.9604 14.7378C19.8274 14.8684 19.8072 15.0753 19.9126 15.229C20.2554 15.7288 20.9647 16.769 20.9991 16.8695C21.1313 17.2557 20.9431 17.4738 20.7549 17.3577C20.5668 17.2416 16.3594 14.5114 16.3594 14.5114L13.8238 12.8225C13.5129 12.6154 13.0968 12.8383 13.0968 13.2117C13.0968 13.2117 13.0116 14.4002 13.0116 15.176C13.0116 15.4908 12.978 15.873 12.5827 15.972C12.3846 16.0217 11.8835 16.0508 11.8835 16.0508L7.61665 15.7402C7.33786 15.7199 7.18473 16.0579 7.3838 16.2541C7.3838 16.2541 13.0116 19.9131 13.0116 20.211C13.0116 20.844 10.9858 19.8296 9.39606 19.0857C7.45407 18.1768 5.29566 17.3599 4.76973 17.1638C4.69293 17.1352 4.60931 17.1414 4.5376 17.1811C4.08408 17.4323 2.40731 18.3643 2.42132 18.4041C2.9674 19.9566 4.41585 22.23 6.61033 23.744C7.48779 24.3494 8.49993 24.9148 9.48539 25.2661C10.6123 25.6677 11.7938 25.9703 12.5827 25.9703Z" fill="white"/>
</g>
<path id="Devias" fill-rule="evenodd" clip-rule="evenodd" d="M33.5488 25.6572L33.6566 25.0719L34.9861 24.9256C36.136 24.7793 36.5672 24.5598 36.5672 24.2672V4.0756C36.5672 3.78297 36.3156 3.67324 34.6986 3.52692L33.6925 3.3806L33.5847 2.79534C33.5847 2.79534 44.0054 2.72218 43.8257 2.72218C52.1982 2.64902 56.7258 7.11166 56.7258 13.8788C56.7258 20.2801 51.6233 25.6572 43.3586 25.6572H33.5488ZM43.682 24.9256C48.8923 24.889 51.6592 20.2069 51.6592 14.6835C51.6592 8.02613 48.9283 3.5635 42.9274 3.5635H41.2385V24.3038L43.682 24.9256ZM66.1403 26.2059C61.8643 26.2059 58.6662 22.7675 58.6662 18.0854C58.6662 13.0375 62.2595 9.16008 67.1105 9.16008C71.0273 9.16008 73.1833 11.6109 73.1833 14.5006C73.1833 14.8298 73.1473 15.1956 73.0755 15.5248C73.0755 15.5248 63.7687 15.4517 63.086 15.3785C63.0141 15.7443 63.0141 16.4027 63.0141 16.7685C63.0141 20.7922 65.2061 23.499 68.3682 23.499C70.2727 23.499 71.7819 22.6943 72.9317 20.7922L73.3629 21.0117C71.9256 24.3038 69.5899 26.2059 66.1403 26.2059ZM63.1219 14.7567L69.1587 14.7201C69.1947 12.2693 68.476 9.96482 66.6434 9.96482C64.9545 9.96482 63.4453 11.8669 63.1219 14.7567ZM82.0947 26.023L76.4532 12.3059C75.8783 10.8793 75.6267 10.5867 74.5487 10.4403L73.9019 10.3306L73.7582 9.74535H82.8134L82.7415 10.3306L81.9869 10.4403C80.7652 10.5501 80.5137 10.9525 80.9089 12.0864L84.5382 21.3409L87.1613 14.3177C88.2753 11.3182 87.9159 10.6964 86.0474 10.4769L85.2928 10.3306L85.185 9.74535H91.6889L91.5811 10.3306L90.8984 10.4403C89.4251 10.6232 89.2455 11.1353 87.9519 14.5006L83.568 26.023H82.0947ZM96.1447 6.78245C94.5277 6.78245 93.5934 5.42903 93.5934 4.18534C93.5934 2.90508 94.5277 1.58823 96.1447 1.58823C97.8335 1.58823 98.7319 2.90508 98.7319 4.18534C98.7319 5.42903 97.8335 6.78245 96.1447 6.78245ZM92.192 25.6572L92.2998 25.0719L92.9107 25.0354C93.9527 24.9622 94.348 24.8525 94.348 24.4135V14.5738C94.348 12.3425 94.0965 12.0132 92.8388 11.684L92.0842 11.5011L92.1201 11.0622L98.4803 9.26982V24.4501C98.4803 24.7793 98.6959 24.889 100.169 25.0354L100.672 25.0719L100.78 25.6572H92.192ZM114.004 26.1327C112.387 26.1327 111.309 25.0354 111.093 23.0235L111.021 22.9869C109.548 24.6696 108.039 26.0961 106.134 26.0961C103.978 26.0961 102.217 24.4501 102.217 22.3651C102.217 19.6582 104.517 17.8659 111.165 16.1832L111.201 15.2322C111.309 12.123 109.907 10.5135 107.643 10.5135C106.35 10.5135 105.344 11.0256 105.344 11.3914C105.344 11.6475 106.35 12.4888 106.35 13.513C106.35 14.5006 105.523 15.4151 104.266 15.4151C103.116 15.4151 102.181 14.7201 102.181 13.6593C102.181 11.3182 106.817 9.19666 110.051 9.19666C113.968 9.19666 115.549 10.8061 115.333 15.3419L115.046 21.9261C114.974 23.243 115.441 23.8282 116.231 23.8282C116.77 23.8282 117.273 23.3161 117.777 22.804L118.136 23.1698C117.238 24.3404 115.692 26.1327 114.004 26.1327ZM108.47 23.5356C109.44 23.5356 110.195 23.0967 110.985 22.2919L111.201 16.8417C107.212 17.8659 106.242 19.2559 106.242 20.9751C106.242 22.548 107.212 23.5356 108.47 23.5356ZM124.388 26.1693C122.34 26.1693 120.472 25.8035 119.106 25.2548L118.89 20.5727L119.753 20.6093L120.651 22.6943C121.693 24.4501 122.843 25.4377 124.604 25.4377C126.472 25.4377 127.694 24.3038 127.694 22.6577C127.694 20.9019 125.969 20.0972 123.849 19.2925C121.334 18.3048 119.142 17.244 119.142 14.2446C119.142 11.2817 121.514 9.23324 125.071 9.23324C126.436 9.23324 127.694 9.48929 128.628 9.8185L130.102 9.45271L130.281 14.3909L129.455 14.4275L127.299 10.7696C126.724 10.3672 125.969 9.96482 124.999 9.96482C123.31 9.96482 122.304 10.9525 122.304 12.4888C122.304 14.208 123.849 14.8298 126.077 15.6711C128.557 16.6588 131 17.7561 131 20.8654C131 23.6088 128.808 26.1693 124.388 26.1693Z" fill="white"/>
</g>
</svg>
