<svg width="41" height="41" viewBox="0 0 41 41" fill="none" xmlns="http://www.w3.org/2000/svg">
<path fill-rule="evenodd" clip-rule="evenodd" d="M0 20.6213C0 31.8218 9.17816 41 20.6213 41C31.8218 41 41 31.8218 41 20.6213C41 9.17816 31.8218 0 20.6213 0C9.17816 0 0 9.17816 0 20.6213ZM39 21.1219C39 30.9411 30.9411 39 21.1219 39C11.092 39 3 30.9739 3 21.1219C3 11.0589 11.0589 3 21.1219 3C30.9739 3 39 11.092 39 21.1219Z" fill="#DFE3E8"/>
<path fill-rule="evenodd" clip-rule="evenodd" d="M19.6951 15.3913C20.0195 15.1248 20.4263 14.9792 20.8461 14.9792C21.2615 14.9792 21.6643 15.1218 21.9872 15.3832L26.8327 19.3054C27.2543 19.6467 27.8262 19.7366 28.3322 19.5411L30.6345 18.6517C30.836 18.5738 31.0621 18.6026 31.2367 18.7298C31.9148 19.2238 33.6401 20.4841 34.2777 20.9795C35.8359 22.1904 36.9839 23 36.9839 23C36.9839 23 36.964 22.5544 36.9839 22.0743C37.3972 12.1063 29.8038 4.87448 21.2729 5.00165C12.7515 5.13221 5.86374 11.9328 6.00205 21.3833C6.01502 22.1793 6.13698 23 6.13698 23L8.30724 21.3833L10.9554 19.4841C11.312 19.2284 11.7875 19.2132 12.1596 19.4456L13.2399 20.1203C13.4764 20.268 13.7807 20.2483 13.9961 20.0714L19.6951 15.3913Z" fill="#DFE3E8"/>
<path fill-rule="evenodd" clip-rule="evenodd" d="M19.4144 38.906C21.9525 39.1874 24.044 38.766 24.7705 38.5678C25.1018 38.4774 26.3401 38.1877 26.632 38.094C27.6098 37.78 29.1018 37.1146 29.9519 36.6297C31.2241 35.9041 32.1224 35.1396 33.3665 34.0671C36.1286 31.686 38 27.2776 38 26.8278C38 26.7258 32.8253 23.0007 31.3466 21.9382C31.1187 21.7745 30.8098 21.8005 30.6087 21.9963C30.4057 22.1939 30.375 22.5088 30.5361 22.7419C31.0571 23.4957 32.1296 25.0565 32.1816 25.2075C32.3822 25.7888 32.0967 26.1171 31.8113 25.9423C31.5259 25.7676 25.1435 21.658 25.1435 21.658L21.2912 19.1119C20.8211 18.8013 20.1943 19.1384 20.1943 19.7018C20.1943 19.7018 20.0651 21.4907 20.0651 22.6585C20.0651 23.1323 20.0141 23.7075 19.4144 23.8566C19.114 23.9313 18.3537 23.9752 18.3537 23.9752L11.8766 23.5074C11.4567 23.477 11.227 23.9868 11.528 24.2812C11.528 24.2812 20.0651 29.7887 20.0651 30.2371C20.0651 31.19 16.992 29.6631 14.5805 28.5433C11.6309 27.1735 8.35212 25.9426 7.55958 25.6494C7.44506 25.607 7.32027 25.6162 7.21326 25.675C6.52943 26.0508 3.9789 27.4574 4.00018 27.5174C4.82855 29.8542 7.02577 33.2761 10.3547 35.555C11.6857 36.4662 13.2211 37.3173 14.716 37.8461C16.4254 38.4507 18.2177 38.906 19.4144 38.906Z" fill="#DFE3E8"/>
</svg>
