<svg width="131" height="27" viewBox="0 0 131 27" fill="none" xmlns="http://www.w3.org/2000/svg">
<g id="devias-s">
<g id="Group 10">
<path id="Combined Shape" fill-rule="evenodd" clip-rule="evenodd" d="M0 13.5799C0 20.9558 6.04416 27 13.5799 27C20.9558 27 27 20.9558 27 13.5799C27 6.04416 20.9558 0 13.5799 0C6.04416 0 0 6.04416 0 13.5799ZM25.2947 13.5799C25.2947 20.0141 20.014 25.2947 13.5799 25.2947C7.00764 25.2947 1.70526 20.0355 1.70526 13.5799C1.70526 6.98595 6.98594 1.70526 13.5799 1.70526C20.0355 1.70526 25.2947 7.00764 25.2947 13.5799Z" fill="white"/>
<path id="Oval 3" fill-rule="evenodd" clip-rule="evenodd" d="M12.3071 10.2097C12.5241 10.0367 12.7935 9.94251 13.0711 9.94251V9.94251C13.3457 9.94251 13.6124 10.0347 13.8283 10.2044L17.0271 12.7178C17.3045 12.9357 17.6756 12.9932 18.006 12.8693L19.5374 12.295C19.6689 12.2457 19.8155 12.2641 19.9301 12.3452C20.3767 12.6609 21.5182 13.4702 21.9397 13.7882C22.9685 14.5642 23.7265 15.0831 23.7265 15.0831C23.7265 15.0831 23.7134 14.7975 23.7265 14.4899C23.9995 8.10121 18.9857 3.46627 13.3529 3.54777C7.72632 3.63145 3.17846 7.99003 3.26978 14.047C3.27835 14.5571 3.35887 15.0831 3.35887 15.0831L4.79186 14.047L6.54436 12.827C6.77852 12.664 7.08675 12.6542 7.33072 12.8022L8.05186 13.2394C8.207 13.3334 8.40432 13.3208 8.54619 13.2077L12.3071 10.2097Z" fill="white"/>
<path id="Oval 4" fill-rule="evenodd" clip-rule="evenodd" d="M12.5092 25.9703C14.1726 26.1572 15.5433 25.8772 16.0195 25.7455C16.2366 25.6855 17.0481 25.4931 17.2394 25.4308C17.8802 25.2222 18.858 24.7801 19.4152 24.458C20.249 23.9759 20.8376 23.468 21.653 22.7555C23.4632 21.1736 24.6897 18.2448 24.6897 17.946C24.6897 17.8783 21.3078 15.4103 20.3333 14.7005C20.1821 14.5904 19.9757 14.6078 19.8426 14.7391V14.7391C19.7109 14.8691 19.6908 15.0742 19.7951 15.2271C20.1354 15.7262 20.8423 16.7689 20.8765 16.8695C21.0079 17.2557 20.8208 17.4738 20.6338 17.3577C20.4467 17.2416 16.2639 14.5114 16.2639 14.5114L13.746 12.8244C13.4363 12.6169 13.0203 12.8389 13.0203 13.2117V13.2117C13.0203 13.2117 12.9357 14.4002 12.9357 15.176C12.9357 15.4908 12.9022 15.873 12.5092 15.972C12.3123 16.0217 11.8141 16.0508 11.8141 16.0508L7.57451 15.7404C7.29585 15.72 7.14229 16.0574 7.3407 16.2541V16.2541C7.3407 16.2541 12.9357 19.9131 12.9357 20.211C12.9357 20.844 10.9217 19.8296 9.34121 19.0856C7.41207 18.1775 5.2681 17.3612 4.74312 17.1643C4.66596 17.1353 4.58198 17.1416 4.50999 17.1817C4.05748 17.4339 2.39327 18.3643 2.40719 18.4041C2.95008 19.9566 4.39008 22.23 6.57175 23.744C7.44408 24.3494 8.45031 24.9148 9.43002 25.2661C10.5503 25.6677 11.7249 25.9703 12.5092 25.9703Z" fill="white"/>
</g>
<path id="Devias" fill-rule="evenodd" clip-rule="evenodd" d="M32.7291 25.6572L32.8369 25.0719L34.1665 24.9256C35.3163 24.7793 35.7475 24.5598 35.7475 24.2672V4.0756C35.7475 3.78297 35.496 3.67324 33.879 3.52692L32.8729 3.3806L32.7651 2.79534C32.7651 2.79534 43.1856 2.72218 43.0059 2.72218C51.3783 2.64902 55.9058 7.11166 55.9058 13.8788C55.9058 20.2801 50.8034 25.6572 42.5388 25.6572H32.7291ZM42.8622 24.9256C48.0725 24.889 50.8393 20.2069 50.8393 14.6835C50.8393 8.02613 48.1084 3.5635 42.1076 3.5635H40.4188V24.3038L42.8622 24.9256ZM65.3203 26.2059C61.0442 26.2059 57.8462 22.7675 57.8462 18.0854C57.8462 13.0375 61.4395 9.16008 66.2905 9.16008C70.2071 9.16008 72.3631 11.6109 72.3631 14.5006C72.3631 14.8298 72.3272 15.1956 72.2553 15.5248C72.2553 15.5248 62.9487 15.4517 62.266 15.3785C62.1941 15.7443 62.1941 16.4027 62.1941 16.7685C62.1941 20.7922 64.386 23.499 67.5481 23.499C69.4526 23.499 70.9617 22.6943 72.1116 20.7922L72.5428 21.0117C71.1055 24.3038 68.7698 26.2059 65.3203 26.2059ZM62.3019 14.7567L68.3386 14.7201C68.3746 12.2693 67.6559 9.96482 65.8233 9.96482C64.1345 9.96482 62.6253 11.8669 62.3019 14.7567ZM81.2745 26.023L75.633 12.3059C75.0581 10.8793 74.8066 10.5867 73.7286 10.4403L73.0818 10.3306L72.938 9.74535H81.9931L81.9213 10.3306L81.1667 10.4403C79.945 10.5501 79.6934 10.9525 80.0887 12.0864L83.7179 21.3409L86.341 14.3177C87.4549 11.3182 87.0956 10.6964 85.2271 10.4769L84.4725 10.3306L84.3647 9.74535H90.8685L90.7607 10.3306L90.078 10.4403C88.6048 10.6232 88.4251 11.1353 87.1315 14.5006L82.7477 26.023H81.2745ZM95.3242 6.78245C93.7072 6.78245 92.773 5.42903 92.773 4.18534C92.773 2.90508 93.7072 1.58823 95.3242 1.58823C97.0131 1.58823 97.9114 2.90508 97.9114 4.18534C97.9114 5.42903 97.0131 6.78245 95.3242 6.78245ZM91.3716 25.6572L91.4794 25.0719L92.0903 25.0354C93.1323 24.9622 93.5276 24.8525 93.5276 24.4135V14.5738C93.5276 12.3425 93.276 12.0132 92.0184 11.684L91.2638 11.5011L91.2997 11.0622L97.6599 9.26982V24.4501C97.6599 24.7793 97.8755 24.889 99.3487 25.0354L99.8518 25.0719L99.9596 25.6572H91.3716ZM113.183 26.1327C111.566 26.1327 110.488 25.0354 110.272 23.0235L110.2 22.9869C108.727 24.6696 107.218 26.0961 105.314 26.0961C103.158 26.0961 101.397 24.4501 101.397 22.3651C101.397 19.6582 103.697 17.8659 110.344 16.1832L110.38 15.2322C110.488 12.123 109.087 10.5135 106.823 10.5135C105.529 10.5135 104.523 11.0256 104.523 11.3914C104.523 11.6474 105.529 12.4888 105.529 13.513C105.529 14.5006 104.703 15.4151 103.445 15.4151C102.295 15.4151 101.361 14.7201 101.361 13.6593C101.361 11.3182 105.996 9.19666 109.23 9.19666C113.147 9.19666 114.728 10.8061 114.512 15.3419L114.225 21.9261C114.153 23.243 114.62 23.8282 115.411 23.8282C115.95 23.8282 116.453 23.3161 116.956 22.804L117.315 23.1698C116.417 24.3404 114.872 26.1327 113.183 26.1327ZM107.649 23.5356C108.619 23.5356 109.374 23.0967 110.165 22.2919L110.38 16.8417C106.392 17.8659 105.421 19.2559 105.421 20.9751C105.421 22.548 106.392 23.5356 107.649 23.5356ZM123.567 26.1693C121.519 26.1693 119.651 25.8035 118.285 25.2548L118.07 20.5727L118.932 20.6093L119.83 22.6943C120.873 24.4501 122.022 25.4377 123.783 25.4377C125.652 25.4377 126.873 24.3038 126.873 22.6577C126.873 20.9019 125.149 20.0972 123.028 19.2925C120.513 18.3048 118.321 17.244 118.321 14.2446C118.321 11.2817 120.693 9.23324 124.25 9.23324C125.616 9.23324 126.873 9.48929 127.808 9.8185L129.281 9.45271L129.46 14.3909L128.634 14.4275L126.478 10.7696C125.903 10.3672 125.149 9.96482 124.178 9.96482C122.489 9.96482 121.483 10.9525 121.483 12.4888C121.483 14.208 123.028 14.8298 125.256 15.6711C127.736 16.6588 130.179 17.7561 130.179 20.8654C130.179 23.6088 127.987 26.1693 123.567 26.1693Z" fill="white"/>
</g>
</svg>
