<svg width="627" height="441" viewBox="0 0 627 441" fill="none" xmlns="http://www.w3.org/2000/svg">
<path opacity="0.15" fill-rule="evenodd" clip-rule="evenodd" d="M199.632 408.243C130.989 408.243 75.1448 352.363 75.1448 283.678C75.1448 278.535 70.981 274.369 65.8422 274.369H18.9343C23.634 181.928 97.9476 107.573 190.329 102.869V126.409C187.968 125.701 185.473 125.31 182.887 125.31C168.523 125.31 156.839 137.002 156.839 151.375V251.482C156.839 256.625 161.005 260.791 166.142 260.791C171.279 260.791 175.445 256.625 175.445 251.482V151.375C175.445 147.268 178.782 143.928 182.887 143.928C186.991 143.928 190.329 147.268 190.329 151.375V208.161C190.329 213.304 194.493 217.47 199.632 217.47C236.115 217.47 265.798 247.169 265.798 283.678C265.798 320.184 236.115 349.885 199.632 349.885C192.256 349.885 186.256 343.883 186.256 336.503C186.256 329.123 192.256 323.117 199.632 323.117C199.802 323.117 199.965 323.094 200.129 323.072H200.129C200.224 323.059 200.319 323.046 200.417 323.037C200.51 323.045 200.603 323.058 200.696 323.071C200.862 323.094 201.029 323.117 201.202 323.117C215.563 323.117 227.249 311.423 227.249 297.05C227.249 282.68 215.563 270.986 201.202 270.986C196.063 270.986 191.899 275.154 191.899 280.295C191.899 285.437 196.063 289.603 201.202 289.603C205.304 289.603 208.644 292.943 208.644 297.05C208.644 301.157 205.304 304.499 201.202 304.499C201.034 304.499 200.871 304.522 200.71 304.544L200.709 304.544C200.612 304.557 200.515 304.571 200.417 304.579C200.315 304.571 200.215 304.557 200.116 304.543C199.956 304.521 199.798 304.499 199.632 304.499C181.997 304.499 167.651 318.855 167.651 336.503C167.651 354.146 181.997 368.502 199.632 368.502C246.376 368.502 284.403 330.45 284.403 283.678C284.403 240.049 251.315 204.025 208.934 199.374V99.2438V48.9768C208.934 44.8698 212.272 41.5298 216.376 41.5298C220.479 41.5298 223.818 44.8698 223.818 48.9768V155.096C223.818 160.236 227.982 164.405 233.121 164.405C238.258 164.405 242.424 160.236 242.424 155.096V26.6358C242.424 22.5288 245.762 19.1889 249.866 19.1889C253.968 19.1889 257.306 22.5288 257.306 26.6358V155.096C257.306 160.236 261.472 164.405 266.609 164.405C271.746 164.405 275.912 160.236 275.912 155.096V48.9768C275.912 44.8698 279.249 41.5298 283.354 41.5298C287.458 41.5298 290.796 44.8698 290.796 48.9768V179.301C290.796 184.441 294.962 188.609 300.099 188.609C305.236 188.609 309.401 184.441 309.401 179.301V104.835C309.401 100.728 312.739 97.3877 316.843 97.3877C320.948 97.3877 324.286 100.728 324.286 104.835V281.998C324.185 282.544 324.116 283.102 324.116 283.678C324.116 352.363 268.272 408.243 199.632 408.243ZM342.891 104.835C342.891 90.462 331.207 78.7702 316.843 78.7702C314.255 78.7702 311.762 79.1612 309.401 79.8687V48.9768C309.401 34.6041 297.717 22.9123 283.354 22.9123C280.721 22.9123 278.18 23.3126 275.781 24.0443C274.477 10.8836 263.353 0.571411 249.866 0.571411C236.377 0.571411 225.253 10.8836 223.949 24.0443C221.55 23.3126 219.009 22.9123 216.376 22.9123C202.011 22.9123 190.329 34.6041 190.329 48.9768V84.2345C84.6057 89.116 0.0926514 176.702 0.0926514 283.678C0.0926514 288.82 4.25839 292.986 9.39534 292.986H56.839C61.6485 367.616 123.856 426.861 199.632 426.861C277.871 426.861 341.609 363.692 342.671 285.649C342.809 285.014 342.891 284.355 342.891 283.678V104.835Z" fill="black"/>
<path d="M227 79.9823H627L626 263V441H227V79.9823Z" fill="white"/>
<rect x="227" y="49" width="400" height="31" fill="#F6F6F6"/>
<path d="M248.231 64.6C248.231 67.0474 246.247 69.0314 243.8 69.0314C241.353 69.0314 239.369 67.0474 239.369 64.6C239.369 62.1527 241.353 60.1687 243.8 60.1687C246.247 60.1687 248.231 62.1527 248.231 64.6Z" fill="#FF6158" stroke="url(#paint0_linear)" stroke-width="0.73728"/>
<path d="M262.631 64.6C262.631 67.0474 260.647 69.0314 258.2 69.0314C255.753 69.0314 253.769 67.0474 253.769 64.6C253.769 62.1527 255.753 60.1687 258.2 60.1687C260.647 60.1687 262.631 62.1527 262.631 64.6Z" fill="#FFBF2E" stroke="url(#paint1_linear)" stroke-width="0.73728"/>
<path d="M277.031 64.6C277.031 67.0474 275.047 69.0314 272.6 69.0314C270.153 69.0314 268.169 67.0474 268.169 64.6C268.169 62.1527 270.153 60.1687 272.6 60.1687C275.047 60.1687 277.031 62.1527 277.031 64.6Z" fill="#27CC40" stroke="url(#paint2_linear)" stroke-width="0.73728"/>
<defs>
<linearGradient id="paint0_linear" x1="239" y1="59.8" x2="239" y2="69.4" gradientUnits="userSpaceOnUse">
<stop stop-opacity="0.04"/>
<stop offset="1" stop-opacity="0.1"/>
</linearGradient>
<linearGradient id="paint1_linear" x1="253.4" y1="59.8" x2="253.4" y2="69.4" gradientUnits="userSpaceOnUse">
<stop stop-opacity="0.04"/>
<stop offset="1" stop-opacity="0.1"/>
</linearGradient>
<linearGradient id="paint2_linear" x1="267.8" y1="59.8" x2="267.8" y2="69.4" gradientUnits="userSpaceOnUse">
<stop stop-opacity="0.04"/>
<stop offset="1" stop-opacity="0.1"/>
</linearGradient>
</defs>
</svg>
