<svg width="627" height="441" viewBox="0 0 627 441" fill="none" xmlns="http://www.w3.org/2000/svg">
<path opacity="0.15" fill-rule="evenodd" clip-rule="evenodd" d="M199.086 408.243C130.599 408.243 74.882 352.363 74.882 283.678C74.882 278.535 70.7276 274.369 65.6004 274.369H18.7989C23.488 181.928 97.633 107.573 189.805 102.869V126.409C187.449 125.701 184.96 125.31 182.38 125.31C168.049 125.31 156.391 137.002 156.391 151.375V251.482C156.391 256.625 160.547 260.791 165.673 260.791C170.798 260.791 174.954 256.625 174.954 251.482V151.375C174.954 147.268 178.285 143.928 182.38 143.928C186.475 143.928 189.805 147.268 189.805 151.375V208.161C189.805 213.304 193.959 217.47 199.086 217.47C235.487 217.47 265.103 247.169 265.103 283.678C265.103 320.184 235.487 349.885 199.086 349.885C191.728 349.885 185.741 343.883 185.741 336.503C185.741 329.123 191.728 323.117 199.086 323.117C199.257 323.117 199.419 323.094 199.583 323.072H199.583C199.678 323.059 199.773 323.046 199.87 323.037C199.963 323.045 200.056 323.058 200.148 323.071C200.314 323.094 200.481 323.117 200.653 323.117C214.982 323.117 226.642 311.423 226.642 297.05C226.642 282.68 214.982 270.986 200.653 270.986C195.526 270.986 191.372 275.154 191.372 280.295C191.372 285.437 195.526 289.603 200.653 289.603C204.746 289.603 208.078 292.943 208.078 297.05C208.078 301.157 204.746 304.499 200.653 304.499C200.485 304.499 200.323 304.522 200.162 304.544C200.128 304.549 200.093 304.554 200.058 304.558C199.995 304.566 199.933 304.574 199.87 304.579C199.826 304.576 199.783 304.571 199.74 304.566C199.683 304.559 199.626 304.551 199.57 304.543C199.41 304.521 199.252 304.499 199.086 304.499C181.492 304.499 167.178 318.855 167.178 336.503C167.178 354.146 181.492 368.502 199.086 368.502C245.725 368.502 283.666 330.45 283.666 283.678C283.666 240.049 250.653 204.025 208.368 199.374V99.2438V48.9767C208.368 44.8697 211.698 41.5298 215.793 41.5298C219.887 41.5298 223.219 44.8697 223.219 48.9767V155.096C223.219 160.236 227.373 164.405 232.5 164.405C237.626 164.405 241.782 160.236 241.782 155.096V26.6358C241.782 22.5288 245.112 19.1888 249.207 19.1888C253.3 19.1888 256.63 22.5288 256.63 26.6358V155.096C256.63 160.236 260.787 164.405 265.912 164.405C271.037 164.405 275.194 160.236 275.194 155.096V48.9767C275.194 44.8697 278.524 41.5298 282.619 41.5298C286.714 41.5298 290.044 44.8697 290.044 48.9767V179.301C290.044 184.441 294.201 188.609 299.326 188.609C304.451 188.609 308.607 184.441 308.607 179.301V104.835C308.607 100.728 311.938 97.3877 316.033 97.3877C320.128 97.3877 323.458 100.728 323.458 104.835V281.998C323.358 282.544 323.289 283.102 323.289 283.678C323.289 352.363 267.572 408.243 199.086 408.243ZM342.021 104.835C342.021 90.462 330.363 78.7702 316.033 78.7702C313.451 78.7702 310.963 79.1612 308.607 79.8687V48.9768C308.607 34.6041 296.95 22.9123 282.619 22.9123C279.992 22.9123 277.457 23.3126 275.064 24.0443C273.762 10.8836 262.664 0.571411 249.207 0.571411C235.749 0.571411 224.65 10.8836 223.349 24.0443C220.956 23.3126 218.42 22.9123 215.793 22.9123C201.461 22.9123 189.805 34.6041 189.805 48.9768V84.2345C84.3214 89.116 0 176.702 0 283.678C0 288.82 4.1563 292.986 9.28159 292.986H56.6177C61.4163 367.616 123.482 426.861 199.086 426.861C277.148 426.861 340.742 363.692 341.802 285.649C341.94 285.014 342.021 284.355 342.021 283.678V104.835Z" fill="black"/>
<path d="M226.393 79.9823H626.143V263V441H226.393V79.9823Z" fill="white"/>
<rect x="226.393" y="49" width="399.75" height="31" fill="#F6F6F6"/>
<path d="M247.611 64.6C247.611 67.0476 245.628 69.0314 243.183 69.0314C240.737 69.0314 238.754 67.0476 238.754 64.6C238.754 62.1525 240.737 60.1687 243.183 60.1687C245.628 60.1687 247.611 62.1525 247.611 64.6Z" fill="#FF6158" stroke="url(#paint0_linear)" stroke-width="0.73728"/>
<path d="M262.002 64.6C262.002 67.0476 260.019 69.0314 257.573 69.0314C255.128 69.0314 253.145 67.0476 253.145 64.6C253.145 62.1525 255.128 60.1687 257.573 60.1687C260.019 60.1687 262.002 62.1525 262.002 64.6Z" fill="#FFBF2E" stroke="url(#paint1_linear)" stroke-width="0.73728"/>
<path d="M276.393 64.6C276.393 67.0476 274.41 69.0314 271.964 69.0314C269.519 69.0314 267.536 67.0476 267.536 64.6C267.536 62.1525 269.519 60.1687 271.964 60.1687C274.41 60.1687 276.393 62.1525 276.393 64.6Z" fill="#27CC40" stroke="url(#paint2_linear)" stroke-width="0.73728"/>
<defs>
<linearGradient id="paint0_linear" x1="238.385" y1="59.8" x2="238.385" y2="69.4" gradientUnits="userSpaceOnUse">
<stop stop-opacity="0.04"/>
<stop offset="1" stop-opacity="0.1"/>
</linearGradient>
<linearGradient id="paint1_linear" x1="252.776" y1="59.8" x2="252.776" y2="69.4" gradientUnits="userSpaceOnUse">
<stop stop-opacity="0.04"/>
<stop offset="1" stop-opacity="0.1"/>
</linearGradient>
<linearGradient id="paint2_linear" x1="267.167" y1="59.8" x2="267.167" y2="69.4" gradientUnits="userSpaceOnUse">
<stop stop-opacity="0.04"/>
<stop offset="1" stop-opacity="0.1"/>
</linearGradient>
</defs>
</svg>
